<svg id="Layer_1" data-name="Layer 1" xmlns="http://www.w3.org/2000/svg" viewBox="0 0 638 266.03"><defs><style>.cls-1{fill:#ffca0b;}.cls-2{fill:#565159;}</style></defs><title>Realme Logo Vector</title><rect class="cls-1" width="638" height="266.03"/><path class="cls-2" d="M380.32,527.61l8.59,4.51a46.78,46.78,0,0,1-9.77,13.41,38.67,38.67,0,0,1-12.47,7.75A43.27,43.27,0,0,1,351,555.94q-19.39,0-30.33-12.71a42.88,42.88,0,0,1-10.94-28.74A42.35,42.35,0,0,1,319,487.62q11.75-15,31.43-15,20.26,0,32.37,15.37,8.59,10.86,8.74,27.1H320.22q.3,13.8,8.83,22.64a28.15,28.15,0,0,0,21.07,8.83,33.73,33.73,0,0,0,11.78-2.11,30.82,30.82,0,0,0,9.74-5.59Q375.65,535.37,380.32,527.61Zm0-21.35a33.67,33.67,0,0,0-5.95-13,28,28,0,0,0-10.32-7.87,31.61,31.61,0,0,0-13.49-3,29.07,29.07,0,0,0-20.06,7.5q-6.12,5.47-9.26,16.39Z" transform="translate(-181 -366.98)"/><path class="cls-2" d="M482.91,474.65V553.9H472.86V540.28A43.66,43.66,0,0,1,458.48,552a40.21,40.21,0,0,1-46.19-8.27,40.9,40.9,0,0,1-11.91-29.68,40.17,40.17,0,0,1,12-29.28,39.2,39.2,0,0,1,28.92-12.17A37.35,37.35,0,0,1,459,476.76a40.17,40.17,0,0,1,13.88,12.46V474.65Zm-40.75,7.79A30.78,30.78,0,0,0,415,498.38a32.13,32.13,0,0,0,0,32,31.26,31.26,0,0,0,11.53,11.9,30.14,30.14,0,0,0,15.53,4.26A31.82,31.82,0,0,0,458,542.32a29.51,29.51,0,0,0,11.53-11.42,32.61,32.61,0,0,0,4-16.22q0-13.75-9.06-23A30,30,0,0,0,442.16,482.44Z" transform="translate(-181 -366.98)"/><path class="cls-2" d="M499.49,444.06h10.2V553.9h-10.2Z" transform="translate(-181 -366.98)"/><path class="cls-2" d="M526.13,474.65h10.2v13.7q5.32-7.58,10.94-11.08a31.06,31.06,0,0,1,16.26-4.66,27,27,0,0,1,10.94,2.26,23.62,23.62,0,0,1,8.46,6,32.28,32.28,0,0,1,5.69,10.74,37.67,37.67,0,0,1,12.72-14.17,30.14,30.14,0,0,1,16.42-4.84,25.7,25.7,0,0,1,14.5,4.15,24.79,24.79,0,0,1,9.34,11.59q3,7.42,3,22.28V553.9H634.23V510.63q0-12.74-1.81-17.51a15.83,15.83,0,0,0-6.21-7.69,18.57,18.57,0,0,0-10.49-2.91,22.77,22.77,0,0,0-13.54,4.37,25.17,25.17,0,0,0-9,11.65q-2.84,7.29-2.83,24.33v31h-10.2V513.33q0-14.36-1.78-19.48a16.35,16.35,0,0,0-6.23-8.24,18,18,0,0,0-10.56-3.09,22.76,22.76,0,0,0-13.22,4.26,25.19,25.19,0,0,0-9.11,11.47q-3,7.22-2.95,22.07V553.9h-10.2Z" transform="translate(-181 -366.98)"/><path class="cls-2" d="M727.23,527.61l8.6,4.51a47,47,0,0,1-9.77,13.41,38.67,38.67,0,0,1-12.47,7.75,43.31,43.31,0,0,1-15.67,2.66q-19.39,0-30.33-12.71a42.88,42.88,0,0,1-10.94-28.74,42.3,42.3,0,0,1,9.26-26.87q11.73-15,31.42-15,20.26,0,32.37,15.37,8.61,10.86,8.75,27.1H667.14q.29,13.8,8.82,22.64A28.18,28.18,0,0,0,697,546.55a33.73,33.73,0,0,0,11.78-2.11,30.82,30.82,0,0,0,9.74-5.59Q722.57,535.37,727.23,527.61Zm0-21.35a33.82,33.82,0,0,0-5.94-13A28,28,0,0,0,711,485.36a31.64,31.64,0,0,0-13.49-3,29.07,29.07,0,0,0-20.06,7.5q-6.12,5.47-9.26,16.39Z" transform="translate(-181 -366.98)"/><rect class="cls-2" x="80.55" y="107.02" width="9.98" height="81.94"/><rect class="cls-2" x="280.65" y="454.9" width="9.98" height="48.19" transform="translate(583.64 -173.63) rotate(90)"/></svg>